# xmcd
#
# Track frame offsets: 
#        150
#        11223
#        28857
#        49661
#        59502
#        71341
#        86070
#        102924
#        115186
#        130019
#        143316
#        151564
#        163146
#        177330
#
# Disc length: 2564 seconds
#
# Revision: 0
# Processed by: cddbd v1.5.1PL0 Copyright (c) Steve Scherf et al.
# Submitted via: ExactAudioCopy v0.95a5
#
DISCID=b20a020e
DTITLE=Johnny Cash - American III - Solitary Man
DYEAR=2002
DGENRE=Country
TTITLE0=I won't back down
TTITLE1=Solitary Man
TTITLE2=That Lucky Old Sun (Just Rolls Around Heaven all day)
TTITLE3=One
TTITLE4=Nobody
TTITLE5=I See Darkness
TTITLE6=The Mercy Seat
TTITLE7=Would You Lay With Me (In A Field Of Stone)
TTITLE8=Field of Diamonds
TTITLE9=Before My Time
TTITLE10=Country Trash
TTITLE11=Mary Of The Wild Moor
TTITLE12=I'm Leavin' Now
TTITLE13=Wayfaring Stranger
EXTD=
EXTT0=
EXTT1=
EXTT2=
EXTT3=
EXTT4=
EXTT5=
EXTT6=
EXTT7=
EXTT8=
EXTT9=
EXTT10=
EXTT11=
EXTT12=
EXTT13=
PLAYORDER=
